<?xml version="1.0" encoding="UTF-8"?>
<svg id="Layer_1" data-name="Layer 1" xmlns="http://www.w3.org/2000/svg" viewBox="0 0 1476.16 1105.97">
  <g>
    <g>
      <line x1="125.12" y1="823.66" x2="1457.12" y2="823.66" style="fill: #ffd90f; stroke: #f2f2f2; stroke-miterlimit: 10;"/>
      <g>
        <line x1="125.12" y1="823.66" x2="125.12" y2="806.01" style="fill: #ffd90f; stroke: #f2f2f2; stroke-miterlimit: 10;"/>
        <line x1="291.62" y1="823.66" x2="291.62" y2="806.01" style="fill: #ffd90f; stroke: #f2f2f2; stroke-miterlimit: 10;"/>
        <line x1="458.12" y1="823.66" x2="458.12" y2="806.01" style="fill: #ffd90f; stroke: #f2f2f2; stroke-miterlimit: 10;"/>
        <line x1="624.62" y1="823.66" x2="624.62" y2="806.01" style="fill: #ffd90f; stroke: #f2f2f2; stroke-miterlimit: 10;"/>
        <line x1="791.12" y1="823.66" x2="791.12" y2="806.01" style="fill: #ffd90f; stroke: #f2f2f2; stroke-miterlimit: 10;"/>
        <line x1="957.62" y1="823.66" x2="957.62" y2="806.01" style="fill: #ffd90f; stroke: #f2f2f2; stroke-miterlimit: 10;"/>
        <line x1="1124.12" y1="823.66" x2="1124.12" y2="806.01" style="fill: #ffd90f; stroke: #f2f2f2; stroke-miterlimit: 10;"/>
        <line x1="1290.62" y1="823.66" x2="1290.62" y2="806.01" style="fill: #ffd90f; stroke: #f2f2f2; stroke-miterlimit: 10;"/>
        <line x1="1457.12" y1="823.66" x2="1457.12" y2="806.01" style="fill: #ffd90f; stroke: #f2f2f2; stroke-miterlimit: 10;"/>
      </g>
    </g>
    <g>
      <g>
        <text transform="translate(69.71 847.07)" style="fill: #ffd90f; font-family: CenturyGothic, &apos;Century Gothic&apos;; font-size: 62.44px; stroke: #f2f2f2; stroke-miterlimit: 10;"><tspan x="0" y="0">0</tspan></text>
        <text transform="translate(35.1 729.41)" style="fill: #ffd90f; font-family: CenturyGothic, &apos;Century Gothic&apos;; font-size: 62.44px; stroke: #f2f2f2; stroke-miterlimit: 10;"><tspan x="0" y="0">20</tspan></text>
        <text transform="translate(35.1 611.74)" style="fill: #ffd90f; font-family: CenturyGothic, &apos;Century Gothic&apos;; font-size: 62.44px; stroke: #f2f2f2; stroke-miterlimit: 10;"><tspan x="0" y="0">40</tspan></text>
        <text transform="translate(35.1 494.07)" style="fill: #ffd90f; font-family: CenturyGothic, &apos;Century Gothic&apos;; font-size: 62.44px; stroke: #f2f2f2; stroke-miterlimit: 10;"><tspan x="0" y="0">60</tspan></text>
        <text transform="translate(35.1 376.41)" style="fill: #ffd90f; font-family: CenturyGothic, &apos;Century Gothic&apos;; font-size: 62.44px; stroke: #f2f2f2; stroke-miterlimit: 10;"><tspan x="0" y="0">80</tspan></text>
        <text transform="translate(.5 258.74)" style="fill: #ffd90f; font-family: CenturyGothic, &apos;Century Gothic&apos;; font-size: 62.44px; stroke: #f2f2f2; stroke-miterlimit: 10;"><tspan x="0" y="0">100</tspan></text>
        <text transform="translate(.5 141.07)" style="fill: #ffd90f; font-family: CenturyGothic, &apos;Century Gothic&apos;; font-size: 62.44px; stroke: #f2f2f2; stroke-miterlimit: 10;"><tspan x="0" y="0">120</tspan></text>
      </g>
      <line x1="125.12" y1="823.66" x2="125.12" y2="117.66" style="fill: #ffd90f; stroke: #f2f2f2; stroke-miterlimit: 10;"/>
      <g>
        <line x1="125.12" y1="823.66" x2="158.42" y2="823.66" style="fill: #ffd90f; stroke: #f2f2f2; stroke-miterlimit: 10;"/>
        <line x1="125.12" y1="705.99" x2="158.42" y2="705.99" style="fill: #ffd90f; stroke: #f2f2f2; stroke-miterlimit: 10;"/>
        <line x1="125.12" y1="588.32" x2="158.42" y2="588.32" style="fill: #ffd90f; stroke: #f2f2f2; stroke-miterlimit: 10;"/>
        <line x1="125.12" y1="470.66" x2="158.42" y2="470.66" style="fill: #ffd90f; stroke: #f2f2f2; stroke-miterlimit: 10;"/>
        <line x1="125.12" y1="352.99" x2="158.42" y2="352.99" style="fill: #ffd90f; stroke: #f2f2f2; stroke-miterlimit: 10;"/>
        <line x1="125.12" y1="235.32" x2="158.42" y2="235.32" style="fill: #ffd90f; stroke: #f2f2f2; stroke-miterlimit: 10;"/>
        <line x1="125.12" y1="117.66" x2="158.42" y2="117.66" style="fill: #ffd90f; stroke: #f2f2f2; stroke-miterlimit: 10;"/>
      </g>
    </g>
    <g>
      <rect x="148.43" y="806.01" width="119.88" height="17.65" style="fill: #ffee15; stroke: #000; stroke-miterlimit: 10;"/>
      <rect x="314.93" y="753.06" width="119.88" height="70.6" style="fill: #f1ff74; stroke: #000; stroke-miterlimit: 10;"/>
      <rect x="481.43" y="123.54" width="119.88" height="700.12" style="fill: #bbc900; stroke: #000; stroke-miterlimit: 10;"/>
      <rect x="647.93" y="794.24" width="119.88" height="29.42" style="fill: #fffd74; stroke: #000; stroke-miterlimit: 10;"/>
      <rect x="814.43" y="811.89" width="119.88" height="11.77" style="fill: #f9ff7f; stroke: #000; stroke-miterlimit: 10;"/>
      <rect x="980.93" y="811.89" width="119.88" height="11.77" style="fill: #fffb00; stroke: #000; stroke-miterlimit: 10;"/>
      <rect x="1147.43" y="770.71" width="119.88" height="52.95" style="fill: #ffdb3f; stroke: #000; stroke-miterlimit: 10;"/>
      <rect x="1313.93" y="806.01" width="119.88" height="17.65" style="fill: #dfb600; stroke: #000; stroke-miterlimit: 10;"/>
    </g>
  </g>
  <text transform="translate(154.62 852.29)" style="fill: #ffd90f; font-family: CenturyGothic, &apos;Century Gothic&apos;; font-size: 26px; stroke: #f2f2f2; stroke-miterlimit: 10;"><tspan x="0" y="0">“Don’t </tspan><tspan x="0" y="31.2">have a </tspan><tspan x="0" y="62.4">cow </tspan><tspan x="0" y="93.6">man”</tspan></text>
  <text/>
  <text/>
  <text transform="translate(395.62 40.01)" style="fill: #ffd90f; font-family: CenturyGothic, &apos;Century Gothic&apos;; font-size: 46px; stroke: #f2f2f2; stroke-miterlimit: 10;"><tspan x="0" y="0">Catchphrase Count Over All 4 Season</tspan></text>
  <text transform="translate(297.62 855.05)" style="fill: #ffd90f; font-family: CenturyGothic, &apos;Century Gothic&apos;; font-size: 26px; stroke: #f2f2f2; stroke-miterlimit: 10;"><tspan x="0" y="0">“Caramba”</tspan></text>
  <text transform="translate(479.62 861.05)" style="fill: #ffd90f; font-family: CenturyGothic, &apos;Century Gothic&apos;; font-size: 26px; stroke: #f2f2f2; stroke-miterlimit: 10;"><tspan x="0" y="0">“D’oh”</tspan></text>
  <text transform="translate(655.62 854.05)" style="fill: #ffd90f; font-family: CenturyGothic, &apos;Century Gothic&apos;; font-size: 26px; stroke: #f2f2f2; stroke-miterlimit: 10;"><tspan x="0" y="0">“Why you </tspan><tspan x="0" y="31.2">little”</tspan></text>
  <text transform="translate(816.62 858.05)" style="fill: #ffd90f; font-family: CenturyGothic, &apos;Century Gothic&apos;; font-size: 26px; stroke: #f2f2f2; stroke-miterlimit: 10;"><tspan x="0" y="0">“Eat my </tspan><tspan x="0" y="31.2">shorts”</tspan></text>
  <g>
    <path d="m972.29,837.9l.99.56c-.32.64-.54,1.15-.65,1.51-.11.36-.2.83-.25,1.41h1.13v3.49h-2.3v-2.18c0-1.09.07-1.95.22-2.57.15-.62.43-1.36.86-2.21Zm5.65,0l.99.56c-.32.64-.54,1.15-.65,1.51-.11.36-.2.83-.25,1.41h1.13v3.49h-2.3v-2.18c0-1.09.07-1.95.22-2.57.14-.62.43-1.36.86-2.21Z" style="fill: #ffd90f; stroke: #f2f2f2; stroke-miterlimit: 10;"/>
    <path d="m1001.34,841.84l-1.47,1.13c-.81-1.06-1.79-1.86-2.93-2.41-1.14-.55-2.39-.82-3.75-.82-1.49,0-2.87.36-4.14,1.07-1.27.71-2.25,1.68-2.95,2.88-.7,1.21-1.05,2.56-1.05,4.07,0,2.28.78,4.18,2.34,5.7s3.53,2.29,5.91,2.29c2.62,0,4.8-1.02,6.56-3.07l1.47,1.12c-.93,1.18-2.09,2.1-3.49,2.75-1.39.65-2.95.97-4.67.97-3.27,0-5.84-1.09-7.73-3.26-1.58-1.84-2.37-4.05-2.37-6.65,0-2.73.96-5.03,2.88-6.9,1.92-1.87,4.32-2.8,7.21-2.8,1.74,0,3.32.34,4.72,1.04,1.4.69,2.56,1.66,3.45,2.9Z" style="fill: #ffd90f; stroke: #f2f2f2; stroke-miterlimit: 10;"/>
    <path d="m1011.33,842.88c2.13,0,3.89.77,5.29,2.31,1.27,1.41,1.91,3.07,1.91,4.99s-.67,3.62-2.02,5.06c-1.34,1.44-3.07,2.16-5.18,2.16s-3.85-.72-5.2-2.16c-1.34-1.44-2.02-3.13-2.02-5.06s.64-3.57,1.91-4.98c1.4-1.55,3.17-2.32,5.3-2.32Zm0,1.74c-1.48,0-2.75.55-3.81,1.64-1.06,1.09-1.59,2.41-1.59,3.96,0,1,.24,1.93.73,2.79.48.86,1.14,1.53,1.96,2,.82.47,1.73.7,2.71.7s1.89-.24,2.71-.7c.82-.47,1.48-1.14,1.96-2s.73-1.79.73-2.79c0-1.55-.53-2.87-1.6-3.96-1.07-1.09-2.33-1.64-3.8-1.64Z" style="fill: #ffd90f; stroke: #f2f2f2; stroke-miterlimit: 10;"/>
    <path d="m1019.95,843.24h1.83l4.23,10.03,4.41-10.03h.32l4.44,10.03,4.32-10.03h1.85l-6,13.81h-.33l-4.42-9.89-4.41,9.89h-.33l-5.9-13.81Z" style="fill: #ffd90f; stroke: #f2f2f2; stroke-miterlimit: 10;"/>
    <path d="m1057.18,843.24v13.81h-1.75v-2.37c-.75.91-1.58,1.59-2.51,2.04s-1.94.69-3.04.69c-1.96,0-3.62-.71-5.01-2.13-1.38-1.42-2.08-3.14-2.08-5.17s.7-3.69,2.09-5.1,3.08-2.12,5.04-2.12c1.13,0,2.16.24,3.08.72.92.48,1.72,1.21,2.42,2.17v-2.54h1.75Zm-7.1,1.36c-.99,0-1.9.24-2.74.73-.84.49-1.5,1.17-2,2.05-.49.88-.74,1.81-.74,2.79s.25,1.9.75,2.79c.5.89,1.17,1.58,2.01,2.07.84.5,1.74.74,2.71.74s1.89-.25,2.76-.74,1.54-1.15,2.01-1.99c.47-.84.7-1.78.7-2.83,0-1.6-.53-2.93-1.58-4.01-1.05-1.07-2.35-1.61-3.89-1.61Z" style="fill: #ffd90f; stroke: #f2f2f2; stroke-miterlimit: 10;"/>
    <path d="m1061.3,857.05v-19.14h1.78v7.71c.74-.91,1.58-1.6,2.5-2.05.92-.45,1.93-.68,3.03-.68,1.95,0,3.62.71,5,2.13,1.38,1.42,2.07,3.14,2.07,5.16s-.7,3.7-2.09,5.12c-1.4,1.41-3.07,2.12-5.04,2.12-1.12,0-2.14-.24-3.06-.72s-1.72-1.21-2.42-2.17v2.54h-1.78Zm7.11-1.36c.99,0,1.9-.24,2.74-.73.84-.49,1.5-1.17,2-2.05s.74-1.81.74-2.79-.25-1.92-.75-2.81c-.5-.89-1.17-1.58-2.01-2.08-.84-.5-1.74-.74-2.69-.74s-1.89.25-2.77.74c-.87.49-1.55,1.16-2.01,2-.47.84-.7,1.78-.7,2.83,0,1.6.53,2.94,1.58,4.01,1.05,1.08,2.35,1.61,3.88,1.61Z" style="fill: #ffd90f; stroke: #f2f2f2; stroke-miterlimit: 10;"/>
    <path d="m1078.69,843.24h1.78v6.45c0,1.57.08,2.66.25,3.25.25.85.74,1.51,1.46,2.01.72.49,1.57.74,2.56.74s1.83-.24,2.52-.72c.69-.48,1.17-1.11,1.43-1.89.18-.53.27-1.66.27-3.39v-6.45h1.82v6.78c0,1.9-.22,3.34-.67,4.3s-1.11,1.72-2.01,2.27c-.89.54-2.01.82-3.36.82s-2.47-.27-3.37-.82c-.9-.55-1.57-1.31-2.02-2.29-.44-.98-.67-2.45-.67-4.41v-6.65Z" style="fill: #ffd90f; stroke: #f2f2f2; stroke-miterlimit: 10;"/>
    <path d="m1094.72,843.24h1.78v2.48c.71-.95,1.5-1.66,2.36-2.13.86-.47,1.8-.71,2.82-.71s1.95.26,2.75.79,1.39,1.23,1.77,2.12.57,2.27.57,4.15v7.11h-1.78v-6.59c0-1.59-.07-2.65-.2-3.19-.21-.91-.6-1.6-1.18-2.06-.58-.46-1.35-.69-2.29-.69-1.08,0-2.04.36-2.89,1.07s-1.41,1.59-1.68,2.64c-.17.69-.25,1.94-.25,3.76v5.07h-1.78v-13.81Z" style="fill: #ffd90f; stroke: #f2f2f2; stroke-miterlimit: 10;"/>
    <path d="m1109.42,849.25h6.98v1.55h-6.98v-1.55Z" style="fill: #ffd90f; stroke: #f2f2f2; stroke-miterlimit: 10;"/>
    <path d="m982.51,874.44h1.78v11.01c0,1.94-.17,3.36-.51,4.25-.47,1.27-1.27,2.25-2.42,2.93-1.15.69-2.54,1.03-4.15,1.03-1.19,0-2.25-.17-3.19-.5-.94-.33-1.71-.79-2.3-1.35-.59-.56-1.14-1.39-1.64-2.48h1.93c.53.91,1.2,1.59,2.03,2.03s1.86.66,3.09.66,2.24-.23,3.07-.68c.83-.45,1.43-1.02,1.79-1.7.36-.68.53-1.79.53-3.31v-.71c-.67.85-1.49,1.5-2.45,1.95-.97.45-1.99.68-3.08.68-1.27,0-2.47-.32-3.58-.95-1.12-.63-1.98-1.48-2.59-2.55-.61-1.07-.92-2.24-.92-3.52s.32-2.47.95-3.57c.63-1.1,1.51-1.98,2.64-2.62,1.12-.64,2.31-.96,3.55-.96,1.03,0,2,.21,2.89.64.89.43,1.75,1.13,2.59,2.11v-2.4Zm-5.24,1.36c-1.01,0-1.94.24-2.81.73-.86.49-1.54,1.16-2.03,2.02-.49.86-.74,1.79-.74,2.79,0,1.51.51,2.77,1.52,3.76s2.33,1.49,3.95,1.49,2.95-.49,3.94-1.47c1-.98,1.49-2.27,1.49-3.87,0-1.04-.23-1.97-.69-2.79-.46-.82-1.1-1.46-1.94-1.94s-1.74-.71-2.7-.71Z" style="fill: #ffd90f; stroke: #f2f2f2; stroke-miterlimit: 10;"/>
    <path d="m1001.86,874.44v13.81h-1.75v-2.37c-.75.91-1.58,1.59-2.51,2.04s-1.94.69-3.04.69c-1.96,0-3.62-.71-5.01-2.13-1.38-1.42-2.08-3.14-2.08-5.17s.7-3.69,2.09-5.1,3.08-2.12,5.04-2.12c1.13,0,2.16.24,3.08.72.92.48,1.72,1.21,2.42,2.17v-2.54h1.75Zm-7.1,1.36c-.99,0-1.9.24-2.74.73-.84.49-1.5,1.17-2,2.05-.49.88-.74,1.81-.74,2.79s.25,1.9.75,2.79c.5.89,1.17,1.58,2.01,2.07.84.5,1.74.74,2.71.74s1.89-.25,2.76-.74,1.54-1.15,2.01-1.99c.47-.84.7-1.78.7-2.83,0-1.6-.53-2.93-1.58-4.01-1.05-1.07-2.35-1.61-3.89-1.61Z" style="fill: #ffd90f; stroke: #f2f2f2; stroke-miterlimit: 10;"/>
    <path d="m1007.38,876.07l-.98-.56c.32-.64.54-1.15.65-1.51.11-.36.19-.83.24-1.41h-1.12v-3.49h2.3v2.18c0,1.09-.07,1.95-.22,2.57-.15.62-.44,1.36-.87,2.22Zm5.65,0l-.98-.56c.32-.64.54-1.15.65-1.51.11-.36.19-.83.24-1.41h-1.12v-3.49h2.3v2.18c0,1.09-.07,1.95-.22,2.57-.15.62-.44,1.36-.87,2.22Z" style="fill: #ffd90f; stroke: #f2f2f2; stroke-miterlimit: 10;"/>
  </g>
  <text transform="translate(1166.62 863.05)" style="fill: #ffd90f; font-family: CenturyGothic, &apos;Century Gothic&apos;; font-size: 26px; stroke: #f2f2f2; stroke-miterlimit: 10;"><tspan x="0" y="0">“diddly”</tspan></text>
  <g>
    <path d="m1310.63,838.31l.99.56c-.32.64-.54,1.15-.65,1.51-.11.36-.2.83-.25,1.41h1.13v3.49h-2.3v-2.18c0-1.09.07-1.95.22-2.57.15-.62.43-1.36.86-2.21Zm5.65,0l.99.56c-.32.64-.54,1.15-.65,1.51-.11.36-.2.83-.25,1.41h1.13v3.49h-2.3v-2.18c0-1.09.07-1.95.22-2.57.14-.62.43-1.36.86-2.21Z" style="fill: #ffd90f; stroke: #f2f2f2; stroke-miterlimit: 10;"/>
    <path d="m1328.94,845.15l-1.14,1.18c-.95-.92-1.88-1.38-2.79-1.38-.58,0-1.07.19-1.48.57-.41.38-.62.83-.62,1.33,0,.45.17.88.51,1.28.34.42,1.05.9,2.14,1.46,1.32.69,2.22,1.35,2.7,1.98.47.64.7,1.37.7,2.17,0,1.13-.4,2.09-1.2,2.88s-1.79,1.18-2.99,1.18c-.8,0-1.56-.17-2.28-.52s-1.32-.83-1.8-1.43l1.12-1.27c.91,1.02,1.87,1.54,2.89,1.54.71,0,1.32-.23,1.82-.69.5-.46.75-.99.75-1.61,0-.51-.17-.96-.5-1.36-.33-.39-1.08-.88-2.24-1.47-1.25-.64-2.1-1.28-2.54-1.9s-.67-1.34-.67-2.15c0-1.05.36-1.92,1.07-2.62s1.62-1.04,2.71-1.04c1.27,0,2.55.62,3.84,1.87Z" style="fill: #ffd90f; stroke: #f2f2f2; stroke-miterlimit: 10;"/>
    <path d="m1333.64,838.51h1.78v5.13h2.82v1.54h-2.82v12.28h-1.78v-12.28h-2.42v-1.54h2.42v-5.13Z" style="fill: #ffd90f; stroke: #f2f2f2; stroke-miterlimit: 10;"/>
    <path d="m1340.67,843.64h1.78v6.45c0,1.57.08,2.66.25,3.25.25.85.74,1.51,1.46,2.01.72.49,1.57.74,2.56.74s1.83-.24,2.52-.72c.69-.48,1.17-1.11,1.43-1.89.18-.53.27-1.66.27-3.39v-6.45h1.82v6.78c0,1.9-.22,3.34-.67,4.3s-1.11,1.72-2.01,2.27c-.89.54-2.01.82-3.36.82s-2.47-.27-3.37-.82c-.9-.55-1.57-1.31-2.02-2.29-.44-.98-.67-2.45-.67-4.41v-6.65Z" style="fill: #ffd90f; stroke: #f2f2f2; stroke-miterlimit: 10;"/>
    <path d="m1356.73,843.64h1.78v2.54c.7-.96,1.51-1.69,2.42-2.17s1.93-.72,3.06-.72c1.96,0,3.64.71,5.04,2.12,1.39,1.41,2.09,3.11,2.09,5.1s-.69,3.76-2.07,5.17c-1.38,1.42-3.05,2.13-5,2.13-1.1,0-2.11-.23-3.03-.69s-1.75-1.14-2.5-2.04v7.43h-1.78v-18.87Zm7.11,1.36c-1.54,0-2.83.54-3.88,1.61-1.05,1.07-1.58,2.41-1.58,4.01,0,1.05.23,1.99.7,2.83.47.84,1.14,1.5,2.01,1.99s1.8.74,2.77.74,1.85-.25,2.69-.74c.84-.49,1.51-1.19,2.01-2.07.5-.89.75-1.82.75-2.79s-.25-1.91-.74-2.79-1.16-1.56-2-2.05-1.75-.73-2.74-.73Z" style="fill: #ffd90f; stroke: #f2f2f2; stroke-miterlimit: 10;"/>
    <path d="m1375.06,837.95c.4,0,.75.14,1.04.43.29.29.43.63.43,1.04s-.14.74-.43,1.03c-.29.29-.63.43-1.04.43s-.74-.14-1.02-.43c-.29-.29-.43-.63-.43-1.03s.14-.75.43-1.04c.29-.29.63-.43,1.02-.43Zm-.88,5.69h1.78v13.81h-1.78v-13.81Z" style="fill: #ffd90f; stroke: #f2f2f2; stroke-miterlimit: 10;"/>
    <path d="m1393.43,838.31v19.14h-1.75v-2.37c-.75.91-1.58,1.59-2.51,2.04s-1.94.69-3.04.69c-1.96,0-3.62-.71-5.01-2.13-1.38-1.42-2.08-3.14-2.08-5.17s.7-3.69,2.09-5.1,3.08-2.12,5.04-2.12c1.13,0,2.16.24,3.08.72.92.48,1.72,1.21,2.42,2.17v-7.87h1.75Zm-7.1,6.69c-.99,0-1.9.24-2.74.73-.84.49-1.5,1.17-2,2.05-.49.88-.74,1.81-.74,2.79s.25,1.9.75,2.79c.5.89,1.17,1.58,2.01,2.07.84.5,1.74.74,2.71.74s1.89-.25,2.76-.74,1.54-1.15,2.01-1.99c.47-.84.7-1.78.7-2.83,0-1.6-.53-2.93-1.58-4.01-1.05-1.07-2.35-1.61-3.89-1.61Z" style="fill: #ffd90f; stroke: #f2f2f2; stroke-miterlimit: 10;"/>
    <path d="m1404.95,838.78h9.36v1.83h-7.49v5.85h7.49v1.83h-7.49v9.17h-1.87v-18.67Z" style="fill: #ffd90f; stroke: #f2f2f2; stroke-miterlimit: 10;"/>
    <path d="m1417,838.31h1.78v19.14h-1.78v-19.14Z" style="fill: #ffd90f; stroke: #f2f2f2; stroke-miterlimit: 10;"/>
    <path d="m1436.23,843.64v13.81h-1.75v-2.37c-.75.91-1.58,1.59-2.51,2.04s-1.94.69-3.04.69c-1.96,0-3.62-.71-5.01-2.13-1.38-1.42-2.08-3.14-2.08-5.17s.7-3.69,2.09-5.1,3.08-2.12,5.04-2.12c1.13,0,2.16.24,3.08.72.92.48,1.72,1.21,2.42,2.17v-2.54h1.75Zm-7.1,1.36c-.99,0-1.9.24-2.74.73-.84.49-1.5,1.17-2,2.05-.49.88-.74,1.81-.74,2.79s.25,1.9.75,2.79c.5.89,1.17,1.58,2.01,2.07.84.5,1.74.74,2.71.74s1.89-.25,2.76-.74,1.54-1.15,2.01-1.99c.47-.84.7-1.78.7-2.83,0-1.6-.53-2.93-1.58-4.01-1.05-1.07-2.35-1.61-3.89-1.61Z" style="fill: #ffd90f; stroke: #f2f2f2; stroke-miterlimit: 10;"/>
    <path d="m1440.23,843.64h1.78v2.48c.71-.95,1.5-1.66,2.36-2.13.86-.47,1.8-.71,2.82-.71s1.95.26,2.75.79,1.39,1.23,1.77,2.12.57,2.27.57,4.15v7.11h-1.78v-6.59c0-1.59-.07-2.65-.2-3.19-.21-.91-.6-1.6-1.18-2.06-.58-.46-1.35-.69-2.29-.69-1.08,0-2.04.36-2.89,1.07s-1.41,1.59-1.68,2.64c-.17.69-.25,1.94-.25,3.76v5.07h-1.78v-13.81Z" style="fill: #ffd90f; stroke: #f2f2f2; stroke-miterlimit: 10;"/>
    <path d="m1454.93,849.66h6.98v1.55h-6.98v-1.55Z" style="fill: #ffd90f; stroke: #f2f2f2; stroke-miterlimit: 10;"/>
    <path d="m1322.73,869.51v19.14h-1.75v-2.37c-.75.91-1.58,1.59-2.51,2.04s-1.94.69-3.04.69c-1.96,0-3.62-.71-5.01-2.13-1.38-1.42-2.08-3.14-2.08-5.17s.7-3.69,2.09-5.1,3.08-2.12,5.04-2.12c1.13,0,2.16.24,3.08.72.92.48,1.72,1.21,2.42,2.17v-7.87h1.75Zm-7.1,6.69c-.99,0-1.9.24-2.74.73-.84.49-1.5,1.17-2,2.05-.49.88-.74,1.81-.74,2.79s.25,1.9.75,2.79c.5.89,1.17,1.58,2.01,2.07.84.5,1.74.74,2.71.74s1.89-.25,2.76-.74,1.54-1.15,2.01-1.99c.47-.84.7-1.78.7-2.83,0-1.6-.53-2.93-1.58-4.01-1.05-1.07-2.35-1.61-3.89-1.61Z" style="fill: #ffd90f; stroke: #f2f2f2; stroke-miterlimit: 10;"/>
    <path d="m1338.39,884.07l1.5.79c-.49.96-1.06,1.74-1.7,2.34s-1.37,1.04-2.17,1.35c-.8.31-1.72.46-2.73.46-2.25,0-4.01-.74-5.29-2.21-1.27-1.48-1.91-3.15-1.91-5.01,0-1.75.54-3.31,1.61-4.68,1.36-1.74,3.19-2.62,5.48-2.62s4.24.89,5.64,2.68c1,1.26,1.51,2.83,1.53,4.72h-12.43c.03,1.6.55,2.92,1.54,3.95.99,1.03,2.22,1.54,3.67,1.54.7,0,1.39-.12,2.05-.37.67-.24,1.23-.57,1.7-.97.47-.4.97-1.06,1.51-1.96Zm0-3.72c-.24-.95-.58-1.71-1.04-2.27-.45-.57-1.05-1.02-1.8-1.37s-1.53-.52-2.35-.52c-1.36,0-2.52.44-3.5,1.31-.71.63-1.25,1.59-1.61,2.86h10.3Z" style="fill: #ffd90f; stroke: #f2f2f2; stroke-miterlimit: 10;"/>
    <path d="m1342.98,874.84h1.82v2.02c.54-.8,1.11-1.39,1.71-1.78.6-.39,1.23-.59,1.88-.59.49,0,1.02.16,1.57.47l-.93,1.5c-.37-.16-.69-.24-.94-.24-.59,0-1.16.24-1.71.73-.55.49-.97,1.24-1.26,2.27-.22.79-.33,2.38-.33,4.77v4.67h-1.82v-13.81Z" style="fill: #ffd90f; stroke: #f2f2f2; stroke-miterlimit: 10;"/>
    <path d="m1358.42,876.35l-1.14,1.18c-.95-.92-1.88-1.38-2.79-1.38-.58,0-1.07.19-1.48.57-.41.38-.62.83-.62,1.33,0,.45.17.88.51,1.28.34.42,1.05.9,2.14,1.46,1.32.69,2.22,1.35,2.7,1.98.47.64.7,1.37.7,2.17,0,1.13-.4,2.09-1.2,2.88s-1.79,1.18-2.99,1.18c-.8,0-1.56-.17-2.28-.52s-1.32-.83-1.8-1.43l1.12-1.27c.91,1.02,1.87,1.54,2.89,1.54.71,0,1.32-.23,1.82-.69.5-.46.75-.99.75-1.61,0-.51-.17-.96-.5-1.36-.33-.39-1.08-.88-2.24-1.47-1.25-.64-2.1-1.28-2.54-1.9s-.67-1.34-.67-2.15c0-1.05.36-1.92,1.07-2.62s1.62-1.04,2.71-1.04c1.27,0,2.55.62,3.84,1.87Z" style="fill: #ffd90f; stroke: #f2f2f2; stroke-miterlimit: 10;"/>
    <path d="m1363.09,876.48l-.98-.56c.32-.64.54-1.15.65-1.51.11-.36.19-.83.24-1.41h-1.12v-3.49h2.3v2.18c0,1.09-.07,1.95-.22,2.57-.15.62-.44,1.36-.87,2.22Zm5.65,0l-.98-.56c.32-.64.54-1.15.65-1.51.11-.36.19-.83.24-1.41h-1.12v-3.49h2.3v2.18c0,1.09-.07,1.95-.22,2.57-.15.62-.44,1.36-.87,2.22Z" style="fill: #ffd90f; stroke: #f2f2f2; stroke-miterlimit: 10;"/>
  </g>
  <text transform="translate(189.62 789.81)" style="fill: #ffd90f; font-family: CenturyGothic, &apos;Century Gothic&apos;; font-size: 43px;"><tspan x="0" y="0">3</tspan></text>
  <text transform="translate(348.65 745.53)" style="fill: #ffd90f; font-family: CenturyGothic, &apos;Century Gothic&apos;; font-size: 43px;"><tspan x="0" y="0">12</tspan></text>
  <text transform="translate(506.65 116.53)" style="fill: #ffd90f; font-family: CenturyGothic, &apos;Century Gothic&apos;; font-size: 43px;"><tspan x="0" y="0">119</tspan></text>
  <text transform="translate(693.65 783.53)" style="fill: #ffd90f; font-family: CenturyGothic, &apos;Century Gothic&apos;; font-size: 43px;"><tspan x="0" y="0">5</tspan></text>
  <text transform="translate(859.65 802.53)" style="fill: #ffd90f; font-family: CenturyGothic, &apos;Century Gothic&apos;; font-size: 43px;"><tspan x="0" y="0">2</tspan></text>
  <text transform="translate(1025.65 803.53)" style="fill: #ffd90f; font-family: CenturyGothic, &apos;Century Gothic&apos;; font-size: 43px;"><tspan x="0" y="0">2</tspan></text>
  <text transform="translate(1192.65 763.53)" style="fill: #ffd90f; font-family: CenturyGothic, &apos;Century Gothic&apos;; font-size: 43px;"><tspan x="0" y="0">9</tspan></text>
  <text transform="translate(1358.65 800.53)" style="fill: #ffd90f; font-family: CenturyGothic, &apos;Century Gothic&apos;; font-size: 43px;"><tspan x="0" y="0">3</tspan></text>
</svg>