<?xml version="1.0" encoding="UTF-8"?>
<svg id="Layer_1" data-name="Layer 1" xmlns="http://www.w3.org/2000/svg" viewBox="0 0 1692.5 942.74">
  <text transform="translate(646 49.38)" style="fill: #ffd90f; font-family: MyriadPro-Regular, &apos;Myriad Pro&apos;; font-size: 59px;"><tspan x="0" y="0" style="letter-spacing: -.04em;">F</tspan><tspan x="26.08" y="0">amily </tspan><tspan x="171.75" y="0" style="letter-spacing: .01em;">O</tspan><tspan x="213.22" y="0" style="letter-spacing: 0em;">v</tspan><tspan x="241.01" y="0">e</tspan><tspan x="270.57" y="0" style="letter-spacing: 0em;">r</tspan><tspan x="289.57" y="0">all </tspan><tspan x="358.36" y="0" style="letter-spacing: -.01em;">C</tspan><tspan x="391.93" y="0">ou</tspan><tspan x="456.83" y="0" style="letter-spacing: 0em;">n</tspan><tspan x="489.34" y="0">t</tspan></text>
  <g>
    <g>
      <g>
        <text transform="translate(138.37 925.56)" style="fill: #ffd90f; font-family: MyriadPro-Regular, &apos;Myriad Pro&apos;; font-size: 68.72px;"><tspan x="0" y="0">0</tspan></text>
        <text transform="translate(469.62 925.56)" style="fill: #ffd90f; font-family: MyriadPro-Regular, &apos;Myriad Pro&apos;; font-size: 68.72px;"><tspan x="0" y="0">500</tspan></text>
        <text transform="translate(818.5 925.56)" style="fill: #ffd90f; font-family: MyriadPro-Regular, &apos;Myriad Pro&apos;; font-size: 68.72px;"><tspan x="0" y="0">1000</tspan></text>
        <text transform="translate(1185 925.56)" style="fill: #ffd90f; font-family: MyriadPro-Regular, &apos;Myriad Pro&apos;; font-size: 68.72px;"><tspan x="0" y="0">1500</tspan></text>
        <text transform="translate(1551.5 925.56)" style="fill: #ffd90f; font-family: MyriadPro-Regular, &apos;Myriad Pro&apos;; font-size: 68.72px;"><tspan x="0" y="0">2000</tspan></text>
      </g>
      <line x1="156" y1="862.49" x2="1622" y2="862.49" style="fill: #ffd90f; stroke: #000; stroke-miterlimit: 10; stroke-width: .25px;"/>
      <g>
        <line x1="156" y1="862.49" x2="156" y2="844.04" style="fill: #ffd90f; stroke: #000; stroke-miterlimit: 10; stroke-width: .25px;"/>
        <line x1="522.5" y1="862.49" x2="522.5" y2="844.04" style="fill: #ffd90f; stroke: #000; stroke-miterlimit: 10; stroke-width: .25px;"/>
        <line x1="889" y1="862.49" x2="889" y2="844.04" style="fill: #ffd90f; stroke: #000; stroke-miterlimit: 10; stroke-width: .25px;"/>
        <line x1="1255.5" y1="862.49" x2="1255.5" y2="844.04" style="fill: #ffd90f; stroke: #000; stroke-miterlimit: 10; stroke-width: .25px;"/>
        <line x1="1622" y1="862.49" x2="1622" y2="844.04" style="fill: #ffd90f; stroke: #000; stroke-miterlimit: 10; stroke-width: .25px;"/>
      </g>
    </g>
    <g>
      <line x1="156" y1="862.49" x2="156" y2="124.49" style="fill: #ffd90f; stroke: #000; stroke-miterlimit: 10; stroke-width: .25px;"/>
      <g>
        <line x1="156" y1="800.99" x2="192.65" y2="800.99" style="fill: #ffd90f; stroke: #000; stroke-miterlimit: 10; stroke-width: .25px;"/>
        <line x1="156" y1="677.99" x2="192.65" y2="677.99" style="fill: #ffd90f; stroke: #000; stroke-miterlimit: 10; stroke-width: .25px;"/>
        <line x1="156" y1="554.99" x2="192.65" y2="554.99" style="fill: #ffd90f; stroke: #000; stroke-miterlimit: 10; stroke-width: .25px;"/>
        <line x1="156" y1="431.99" x2="192.65" y2="431.99" style="fill: #ffd90f; stroke: #000; stroke-miterlimit: 10; stroke-width: .25px;"/>
        <line x1="156" y1="308.99" x2="192.65" y2="308.99" style="fill: #ffd90f; stroke: #000; stroke-miterlimit: 10; stroke-width: .25px;"/>
        <line x1="156" y1="185.99" x2="192.65" y2="185.99" style="fill: #ffd90f; stroke: #000; stroke-miterlimit: 10; stroke-width: .25px;"/>
      </g>
    </g>
    <g>
      <rect x="156" y="141.71" width="1293.01" height="88.56" style="fill: #e6e6e6; stroke: #000; stroke-miterlimit: 10; stroke-width: .25px;"/>
      <rect x="156" y="264.71" width="1000.55" height="88.56" style="fill: #ff946a; stroke: #000; stroke-miterlimit: 10; stroke-width: .25px;"/>
      <rect x="156" y="387.71" width="686.82" height="88.56" style="fill: #35ff7f; stroke: #000; stroke-miterlimit: 10; stroke-width: .25px;"/>
      <rect x="156" y="510.71" width="492.58" height="88.56" style="fill: #e93400; stroke: #000; stroke-miterlimit: 10; stroke-width: .25px;"/>
      <rect x="156" y="633.71" width="93.09" height="88.56" style="fill: #00b6df; stroke: #000; stroke-miterlimit: 10; stroke-width: .25px;"/>
      <rect x="156" y="759.71" width="60.84" height="88.56" style="fill: #ffeeb0; stroke: #000; stroke-miterlimit: 10; stroke-width: .25px;"/>
    </g>
  </g>
  <text transform="translate(10 204.02)" style="fill: #ffd90f; font-family: MyriadPro-Regular, &apos;Myriad Pro&apos;; font-size: 43px;"><tspan x="0" y="0">Homer</tspan></text>
  <text transform="translate(32 319.02)" style="fill: #ffd90f; font-family: MyriadPro-Regular, &apos;Myriad Pro&apos;; font-size: 43px;"><tspan x="0" y="0">Ba</tspan><tspan x="44.03" y="0" style="letter-spacing: .02em;">r</tspan><tspan x="59.12" y="0">t</tspan></text>
  <text transform="translate(18 435.02)" style="fill: #ffd90f; font-family: MyriadPro-Regular, &apos;Myriad Pro&apos;; font-size: 43px;"><tspan x="0" y="0" style="letter-spacing: 0em;">M</tspan><tspan x="34.83" y="0">a</tspan><tspan x="55.55" y="0" style="letter-spacing: 0em;">r</tspan><tspan x="69.27" y="0">ge</tspan></text>
  <text transform="translate(39 561.02)" style="fill: #ffd90f; font-family: MyriadPro-Regular, &apos;Myriad Pro&apos;; font-size: 43px;"><tspan x="0" y="0">Lisa</tspan></text>
  <text transform="translate(0 686.02)" style="fill: #ffd90f; font-family: MyriadPro-Regular, &apos;Myriad Pro&apos;; font-size: 43px;"><tspan x="0" y="0" style="letter-spacing: 0em;">M</tspan><tspan x="34.83" y="0">ag</tspan><tspan x="79.59" y="0" style="letter-spacing: 0em;">g</tspan><tspan x="103.37" y="0">ie</tspan></text>
  <text transform="translate(35 815.02)" style="fill: #ffd90f; font-family: MyriadPro-Regular, &apos;Myriad Pro&apos;; font-size: 43px;"><tspan x="0" y="0" style="letter-spacing: 0em;">A</tspan><tspan x="26.19" y="0">be</tspan></text>
  <text transform="translate(1458 204.02)" style="fill: #ffd90f; font-family: MyriadPro-Regular, &apos;Myriad Pro&apos;; font-size: 43px;"><tspan x="0" y="0">1764</tspan></text>
  <text transform="translate(1168 322.02)" style="fill: #ffd90f; font-family: MyriadPro-Regular, &apos;Myriad Pro&apos;; font-size: 43px;"><tspan x="0" y="0">1365</tspan></text>
  <text transform="translate(857 446.02)" style="fill: #ffd90f; font-family: MyriadPro-Regular, &apos;Myriad Pro&apos;; font-size: 43px;"><tspan x="0" y="0">937</tspan></text>
  <text transform="translate(660 569.02)" style="fill: #ffd90f; font-family: MyriadPro-Regular, &apos;Myriad Pro&apos;; font-size: 43px;"><tspan x="0" y="0">672</tspan></text>
  <text transform="translate(256 693.02)" style="fill: #ffd90f; font-family: MyriadPro-Regular, &apos;Myriad Pro&apos;; font-size: 43px;"><tspan x="0" y="0">126</tspan></text>
  <text transform="translate(240 811.02)" style="fill: #ffd90f; font-family: MyriadPro-Regular, &apos;Myriad Pro&apos;; font-size: 43px;"><tspan x="0" y="0">83</tspan></text>
</svg>