<?xml version="1.0" encoding="UTF-8"?>
<svg id="Layer_1" data-name="Layer 1" xmlns="http://www.w3.org/2000/svg" viewBox="0 0 1688.27 947.4">
  <text transform="translate(332.5 51.18)" style="fill: #ffd90f; font-family: CenturyGothic, &apos;Century Gothic&apos;; font-size: 59px; stroke: #f2f2f2; stroke-miterlimit: 10;"><tspan x="0" y="0">Other Persons Across All 4 Seasons Count</tspan></text>
  <g>
    <g>
      <g>
        <text transform="translate(145.6 925.83)" style="fill: #ffd90f; font-family: CenturyGothic, &apos;Century Gothic&apos;; font-size: 68.72px; stroke: #f2f2f2; stroke-miterlimit: 10;"><tspan x="0" y="0">0</tspan></text>
        <text transform="translate(290.77 925.83)" style="fill: #ffd90f; font-family: CenturyGothic, &apos;Century Gothic&apos;; font-size: 68.72px; stroke: #f2f2f2; stroke-miterlimit: 10;"><tspan x="0" y="0">100</tspan></text>
        <text transform="translate(474.02 925.83)" style="fill: #ffd90f; font-family: CenturyGothic, &apos;Century Gothic&apos;; font-size: 68.72px; stroke: #f2f2f2; stroke-miterlimit: 10;"><tspan x="0" y="0">200</tspan></text>
        <text transform="translate(657.27 925.83)" style="fill: #ffd90f; font-family: CenturyGothic, &apos;Century Gothic&apos;; font-size: 68.72px; stroke: #f2f2f2; stroke-miterlimit: 10;"><tspan x="0" y="0">300</tspan></text>
        <text transform="translate(840.52 925.83)" style="fill: #ffd90f; font-family: CenturyGothic, &apos;Century Gothic&apos;; font-size: 68.72px; stroke: #f2f2f2; stroke-miterlimit: 10;"><tspan x="0" y="0">400</tspan></text>
        <text transform="translate(1023.77 925.83)" style="fill: #ffd90f; font-family: CenturyGothic, &apos;Century Gothic&apos;; font-size: 68.72px; stroke: #f2f2f2; stroke-miterlimit: 10;"><tspan x="0" y="0">500</tspan></text>
        <text transform="translate(1207.02 925.83)" style="fill: #ffd90f; font-family: CenturyGothic, &apos;Century Gothic&apos;; font-size: 68.72px; stroke: #f2f2f2; stroke-miterlimit: 10;"><tspan x="0" y="0">600</tspan></text>
        <text transform="translate(1390.27 925.83)" style="fill: #ffd90f; font-family: CenturyGothic, &apos;Century Gothic&apos;; font-size: 68.72px; stroke: #f2f2f2; stroke-miterlimit: 10;"><tspan x="0" y="0">700</tspan></text>
        <text transform="translate(1573.52 925.83)" style="fill: #ffd90f; font-family: CenturyGothic, &apos;Century Gothic&apos;; font-size: 68.72px; stroke: #f2f2f2; stroke-miterlimit: 10;"><tspan x="0" y="0">800</tspan></text>
      </g>
      <line x1="164.64" y1="862.76" x2="1630.64" y2="862.76" style="fill: #3fa9f5; stroke: #000; stroke-miterlimit: 10;"/>
      <g>
        <line x1="164.64" y1="862.76" x2="164.64" y2="844.31" style="fill: #3fa9f5; stroke: #000; stroke-miterlimit: 10;"/>
        <line x1="347.89" y1="862.76" x2="347.89" y2="844.31" style="fill: #3fa9f5; stroke: #000; stroke-miterlimit: 10;"/>
        <line x1="531.14" y1="862.76" x2="531.14" y2="844.31" style="fill: #3fa9f5; stroke: #000; stroke-miterlimit: 10;"/>
        <line x1="714.39" y1="862.76" x2="714.39" y2="844.31" style="fill: #3fa9f5; stroke: #000; stroke-miterlimit: 10;"/>
        <line x1="897.64" y1="862.76" x2="897.64" y2="844.31" style="fill: #3fa9f5; stroke: #000; stroke-miterlimit: 10;"/>
        <line x1="1080.89" y1="862.76" x2="1080.89" y2="844.31" style="fill: #3fa9f5; stroke: #000; stroke-miterlimit: 10;"/>
        <line x1="1264.14" y1="862.76" x2="1264.14" y2="844.31" style="fill: #3fa9f5; stroke: #000; stroke-miterlimit: 10;"/>
        <line x1="1447.39" y1="862.76" x2="1447.39" y2="844.31" style="fill: #3fa9f5; stroke: #000; stroke-miterlimit: 10;"/>
        <line x1="1630.64" y1="862.76" x2="1630.64" y2="844.31" style="fill: #3fa9f5; stroke: #000; stroke-miterlimit: 10;"/>
      </g>
    </g>
    <g>
      <line x1="164.64" y1="862.76" x2="164.64" y2="124.76" style="fill: #3fa9f5; stroke: #000; stroke-miterlimit: 10;"/>
      <g>
        <line x1="164.64" y1="851.23" x2="201.29" y2="851.23" style="fill: #3fa9f5; stroke: #000; stroke-miterlimit: 10;"/>
        <line x1="164.64" y1="828.16" x2="201.29" y2="828.16" style="fill: #3fa9f5; stroke: #000; stroke-miterlimit: 10;"/>
        <line x1="164.64" y1="805.1" x2="201.29" y2="805.1" style="fill: #3fa9f5; stroke: #000; stroke-miterlimit: 10;"/>
        <line x1="164.64" y1="782.04" x2="201.29" y2="782.04" style="fill: #3fa9f5; stroke: #000; stroke-miterlimit: 10;"/>
        <line x1="164.64" y1="758.98" x2="201.29" y2="758.98" style="fill: #3fa9f5; stroke: #000; stroke-miterlimit: 10;"/>
        <line x1="164.64" y1="735.91" x2="201.29" y2="735.91" style="fill: #3fa9f5; stroke: #000; stroke-miterlimit: 10;"/>
        <line x1="164.64" y1="712.85" x2="201.29" y2="712.85" style="fill: #3fa9f5; stroke: #000; stroke-miterlimit: 10;"/>
        <line x1="164.64" y1="689.79" x2="201.29" y2="689.79" style="fill: #3fa9f5; stroke: #000; stroke-miterlimit: 10;"/>
        <line x1="164.64" y1="666.73" x2="201.29" y2="666.73" style="fill: #3fa9f5; stroke: #000; stroke-miterlimit: 10;"/>
        <line x1="164.64" y1="643.66" x2="201.29" y2="643.66" style="fill: #3fa9f5; stroke: #000; stroke-miterlimit: 10;"/>
        <line x1="164.64" y1="620.6" x2="201.29" y2="620.6" style="fill: #3fa9f5; stroke: #000; stroke-miterlimit: 10;"/>
        <line x1="164.64" y1="597.54" x2="201.29" y2="597.54" style="fill: #3fa9f5; stroke: #000; stroke-miterlimit: 10;"/>
        <line x1="164.64" y1="574.48" x2="201.29" y2="574.48" style="fill: #3fa9f5; stroke: #000; stroke-miterlimit: 10;"/>
        <line x1="164.64" y1="551.41" x2="201.29" y2="551.41" style="fill: #3fa9f5; stroke: #000; stroke-miterlimit: 10;"/>
        <line x1="164.64" y1="528.35" x2="201.29" y2="528.35" style="fill: #3fa9f5; stroke: #000; stroke-miterlimit: 10;"/>
        <line x1="164.64" y1="505.29" x2="201.29" y2="505.29" style="fill: #3fa9f5; stroke: #000; stroke-miterlimit: 10;"/>
        <line x1="164.64" y1="482.23" x2="201.29" y2="482.23" style="fill: #3fa9f5; stroke: #000; stroke-miterlimit: 10;"/>
        <line x1="164.64" y1="459.16" x2="201.29" y2="459.16" style="fill: #3fa9f5; stroke: #000; stroke-miterlimit: 10;"/>
        <line x1="164.64" y1="436.1" x2="201.29" y2="436.1" style="fill: #3fa9f5; stroke: #000; stroke-miterlimit: 10;"/>
        <line x1="164.64" y1="413.04" x2="201.29" y2="413.04" style="fill: #3fa9f5; stroke: #000; stroke-miterlimit: 10;"/>
        <line x1="164.64" y1="389.98" x2="201.29" y2="389.98" style="fill: #3fa9f5; stroke: #000; stroke-miterlimit: 10;"/>
        <line x1="164.64" y1="366.91" x2="201.29" y2="366.91" style="fill: #3fa9f5; stroke: #000; stroke-miterlimit: 10;"/>
        <line x1="164.64" y1="343.85" x2="201.29" y2="343.85" style="fill: #3fa9f5; stroke: #000; stroke-miterlimit: 10;"/>
        <line x1="164.64" y1="320.79" x2="201.29" y2="320.79" style="fill: #3fa9f5; stroke: #000; stroke-miterlimit: 10;"/>
        <line x1="164.64" y1="297.73" x2="201.29" y2="297.73" style="fill: #3fa9f5; stroke: #000; stroke-miterlimit: 10;"/>
        <line x1="164.64" y1="274.66" x2="201.29" y2="274.66" style="fill: #3fa9f5; stroke: #000; stroke-miterlimit: 10;"/>
        <line x1="164.64" y1="251.6" x2="201.29" y2="251.6" style="fill: #3fa9f5; stroke: #000; stroke-miterlimit: 10;"/>
        <line x1="164.64" y1="228.54" x2="201.29" y2="228.54" style="fill: #3fa9f5; stroke: #000; stroke-miterlimit: 10;"/>
        <line x1="164.64" y1="205.48" x2="201.29" y2="205.48" style="fill: #3fa9f5; stroke: #000; stroke-miterlimit: 10;"/>
        <line x1="164.64" y1="182.41" x2="201.29" y2="182.41" style="fill: #3fa9f5; stroke: #000; stroke-miterlimit: 10;"/>
        <line x1="164.64" y1="159.35" x2="201.29" y2="159.35" style="fill: #3fa9f5; stroke: #000; stroke-miterlimit: 10;"/>
        <line x1="164.64" y1="136.29" x2="201.29" y2="136.29" style="fill: #3fa9f5; stroke: #000; stroke-miterlimit: 10;"/>
      </g>
    </g>
    <g>
      <rect x="164.64" y="127.99" width="1209.45" height="16.6" style="stroke: #000; stroke-miterlimit: 10;"/>
      <rect x="164.64" y="151.05" width="1017.04" height="16.6" style="fill: red; stroke: #000; stroke-miterlimit: 10;"/>
      <rect x="164.64" y="174.11" width="962.06" height="16.6" style="fill: #ff0; stroke: #000; stroke-miterlimit: 10;"/>
      <rect x="164.64" y="197.17" width="852.11" height="16.6" style="fill: lime; stroke: #000; stroke-miterlimit: 10;"/>
      <rect x="164.64" y="220.24" width="668.86" height="16.6" style="fill: aqua; stroke: #000; stroke-miterlimit: 10;"/>
      <rect x="164.64" y="246.3" width="632.21" height="16.6" style="fill: blue; stroke: #000; stroke-miterlimit: 10;"/>
      <rect x="164.64" y="266.36" width="613.89" height="16.6" style="fill: #f0f; stroke: #f2f2f2; stroke-miterlimit: 10;"/>
      <rect x="164.64" y="289.42" width="467.29" height="16.6" style="fill: #c1272d; stroke: #f2f2f2; stroke-miterlimit: 10;"/>
      <rect x="164.64" y="312.49" width="458.12" height="16.6" style="fill: #ed1c24; stroke: #f2f2f2; stroke-miterlimit: 10;"/>
      <rect x="164.64" y="335.55" width="421.48" height="16.6" style="fill: #f15a24; stroke: #f2f2f2; stroke-miterlimit: 10;"/>
      <rect x="164.64" y="358.61" width="320.69" height="16.6" style="fill: #f7931e; stroke: #f2f2f2; stroke-miterlimit: 10;"/>
      <rect x="164.64" y="381.67" width="274.88" height="16.6" style="fill: #fbb03b; stroke: #f2f2f2; stroke-miterlimit: 10;"/>
      <rect x="164.64" y="404.74" width="256.55" height="16.6" style="fill: #fcee21; stroke: #f2f2f2; stroke-miterlimit: 10;"/>
      <rect x="164.64" y="427.8" width="256.55" height="16.6" style="fill: #d9e021; stroke: #f2f2f2; stroke-miterlimit: 10;"/>
      <rect x="164.64" y="450.86" width="247.39" height="16.6" style="fill: #8cc63f; stroke: #f2f2f2; stroke-miterlimit: 10;"/>
      <rect x="164.64" y="473.92" width="238.23" height="16.6" style="fill: #39b54a; stroke: #f2f2f2; stroke-miterlimit: 10;"/>
      <rect x="164.64" y="496.99" width="219.9" height="16.6" style="fill: #009245; stroke: #f2f2f2; stroke-miterlimit: 10;"/>
      <rect x="164.64" y="520.05" width="183.25" height="16.6" style="fill: #006837; stroke: #f2f2f2; stroke-miterlimit: 10;"/>
      <rect x="164.64" y="543.11" width="183.25" height="16.6" style="fill: #00a99d; stroke: #f2f2f2; stroke-miterlimit: 10;"/>
      <rect x="164.64" y="566.17" width="174.09" height="16.6" style="fill: #29abe2; stroke: #f2f2f2; stroke-miterlimit: 10;"/>
      <rect x="164.64" y="589.24" width="137.44" height="16.6" style="fill: #0071bc; stroke: #f2f2f2; stroke-miterlimit: 10;"/>
      <rect x="164.64" y="612.3" width="91.62" height="16.6" style="fill: #2e3192; stroke: #f2f2f2; stroke-miterlimit: 10;"/>
      <rect x="164.64" y="635.36" width="54.98" height="16.6" style="fill: #1b1464; stroke: #f2f2f2; stroke-miterlimit: 10;"/>
      <rect x="164.64" y="658.42" width="45.81" height="16.6" style="fill: #662d91; stroke: #f2f2f2; stroke-miterlimit: 10;"/>
      <rect x="164.64" y="681.49" width="36.65" height="16.6" style="fill: #93278f; stroke: #f2f2f2; stroke-miterlimit: 10;"/>
      <rect x="164.64" y="704.55" width="36.65" height="16.6" style="fill: #9e005d; stroke: #f2f2f2; stroke-miterlimit: 10;"/>
      <rect x="164.64" y="727.61" width="36.65" height="16.6" style="fill: #d4145a; stroke: #f2f2f2; stroke-miterlimit: 10;"/>
      <rect x="164.64" y="750.67" width="18.32" height="16.6" style="fill: #ed1e79; stroke: #f2f2f2; stroke-miterlimit: 10;"/>
      <rect x="164.64" y="773.74" width="9.16" height="16.6" style="fill: #c7b299; stroke: #f2f2f2; stroke-miterlimit: 10;"/>
      <rect x="164.64" y="796.8" width="9.16" height="16.6" style="fill: #998675; stroke: #f2f2f2; stroke-miterlimit: 10;"/>
      <rect x="164.64" y="819.86" width="9.16" height="16.6" style="fill: #736357; stroke: #f2f2f2; stroke-miterlimit: 10;"/>
      <rect x="164.64" y="842.92" width="9.16" height="16.6" style="fill: #534741; stroke: #f2f2f2; stroke-miterlimit: 10;"/>
    </g>
  </g>
  <text transform="translate(112.5 141.98)" style="fill: #ffd90f; font-family: CenturyGothic, &apos;Century Gothic&apos;; font-size: 16px;"><tspan x="0" y="0">Krusty</tspan></text>
  <text transform="translate(119 162.96)" style="fill: #ffd90f; font-family: CenturyGothic, &apos;Century Gothic&apos;; font-size: 16px;"><tspan x="0" y="0">Moe</tspan></text>
  <text transform="translate(104 184.96)" style="fill: #ffd90f; font-family: CenturyGothic, &apos;Century Gothic&apos;; font-size: 16px;"><tspan x="0" y="0">Skinner</tspan></text>
  <text transform="translate(92 208.96)" style="fill: #ffd90f; font-family: CenturyGothic, &apos;Century Gothic&apos;; font-size: 16px;"><tspan x="0" y="0">Milhouse</tspan></text>
  <text transform="translate(119 233.96)" style="fill: #ffd90f; font-family: CenturyGothic, &apos;Century Gothic&apos;; font-size: 16px;"><tspan x="0" y="0">Burns</tspan></text>
  <text transform="translate(106 257.96)" style="fill: #ffd90f; font-family: CenturyGothic, &apos;Century Gothic&apos;; font-size: 16px;"><tspan x="0" y="0">Nelson</tspan></text>
  <text transform="translate(112 278.96)" style="fill: #ffd90f; font-family: CenturyGothic, &apos;Century Gothic&apos;; font-size: 16px;"><tspan x="0" y="0">Lenny</tspan></text>
  <text transform="translate(95 301.96)" style="fill: #ffd90f; font-family: CenturyGothic, &apos;Century Gothic&apos;; font-size: 16px;"><tspan x="0" y="0">Flanders</tspan></text>
  <text transform="translate(105 322.96)" style="fill: #ffd90f; font-family: CenturyGothic, &apos;Century Gothic&apos;; font-size: 16px;"><tspan x="0" y="0">Barney</tspan></text>
  <text transform="translate(54 347.96)" style="fill: #ffd90f; font-family: CenturyGothic, &apos;Century Gothic&apos;; font-size: 16px;"><tspan x="0" y="0">Sideshow Bob</tspan></text>
  <text transform="translate(98 369.96)" style="fill: #ffd90f; font-family: CenturyGothic, &apos;Century Gothic&apos;; font-size: 16px;"><tspan x="0" y="0">Smithers</tspan></text>
  <text transform="translate(127 392.96)" style="fill: #ffd90f; font-family: CenturyGothic, &apos;Century Gothic&apos;; font-size: 16px;"><tspan x="0" y="0">Apu</tspan></text>
  <text transform="translate(120 415.96)" style="fill: #ffd90f; font-family: CenturyGothic, &apos;Century Gothic&apos;; font-size: 16px;"><tspan x="0" y="0">Patty</tspan></text>
  <text transform="translate(122 438.96)" style="fill: #ffd90f; font-family: CenturyGothic, &apos;Century Gothic&apos;; font-size: 16px;"><tspan x="0" y="0">Itchy</tspan></text>
  <text transform="translate(93 465.96)" style="fill: #ffd90f; font-family: CenturyGothic, &apos;Century Gothic&apos;; font-size: 16px;"><tspan x="0" y="0">Scratchy</tspan></text>
  <text transform="translate(44 487.96)" style="fill: #ffd90f; font-family: CenturyGothic, &apos;Century Gothic&apos;; font-size: 16px;"><tspan x="0" y="0">Mrs. Krabappel</tspan></text>
  <text transform="translate(118 509.96)" style="fill: #ffd90f; font-family: CenturyGothic, &apos;Century Gothic&apos;; font-size: 16px;"><tspan x="0" y="0">Ralph</tspan></text>
  <text transform="translate(115 531.96)" style="fill: #ffd90f; font-family: CenturyGothic, &apos;Century Gothic&apos;; font-size: 16px;"><tspan x="0" y="0">Selma</tspan></text>
  <text transform="translate(132 554.96)" style="fill: #ffd90f; font-family: CenturyGothic, &apos;Century Gothic&apos;; font-size: 16px;"><tspan x="0" y="0">Lou</tspan></text>
  <text transform="translate(114 577.96)" style="fill: #ffd90f; font-family: CenturyGothic, &apos;Century Gothic&apos;; font-size: 16px;"><tspan x="0" y="0">Snake</tspan></text>
  <text transform="translate(128 601.96)" style="fill: #ffd90f; font-family: CenturyGothic, &apos;Century Gothic&apos;; font-size: 16px;"><tspan x="0" y="0">Carl</tspan></text>
  <text transform="translate(97 623.96)" style="fill: #ffd90f; font-family: CenturyGothic, &apos;Century Gothic&apos;; font-size: 16px;"><tspan x="0" y="0">Wiggum</tspan></text>
  <text transform="translate(98 646.96)" style="fill: #ffd90f; font-family: CenturyGothic, &apos;Century Gothic&apos;; font-size: 16px;"><tspan x="0" y="0">Fat Tony</tspan></text>
  <text transform="translate(23 669.96)" style="fill: #ffd90f; font-family: CenturyGothic, &apos;Century Gothic&apos;; font-size: 16px;"><tspan x="0" y="0">Reverend Lovejoy</tspan></text>
  <text transform="translate(0 693.96)" style="fill: #ffd90f; font-family: CenturyGothic, &apos;Century Gothic&apos;; font-size: 16px;"><tspan x="0" y="0">Groundskeeper Willie</tspan></text>
  <text transform="translate(76 717.96)" style="fill: #ffd90f; font-family: CenturyGothic, &apos;Century Gothic&apos;; font-size: 16px;"><tspan x="0" y="0">Dr. Hibbert</tspan></text>
  <text transform="translate(28 741.96)" style="fill: #ffd90f; font-family: CenturyGothic, &apos;Century Gothic&apos;; font-size: 16px;"><tspan x="0" y="0">Comic Book Guy</tspan></text>
  <text transform="translate(91 762.96)" style="fill: #ffd90f; font-family: CenturyGothic, &apos;Century Gothic&apos;; font-size: 16px;"><tspan x="0" y="0">Disco Stu</tspan></text>
  <text transform="translate(87 786.96)" style="fill: #ffd90f; font-family: CenturyGothic, &apos;Century Gothic&apos;; font-size: 16px;"><tspan x="0" y="0">Chalmers</tspan></text>
  <text transform="translate(35 808.96)" style="fill: #ffd90f; font-family: CenturyGothic, &apos;Century Gothic&apos;; font-size: 16px;"><tspan x="0" y="0">Maude Flanders</tspan></text>
  <text transform="translate(111 833.96)" style="fill: #ffd90f; font-family: CenturyGothic, &apos;Century Gothic&apos;; font-size: 16px;"><tspan x="0" y="0">Cletus</tspan></text>
  <text transform="translate(99 855.96)" style="fill: #ffd90f; font-family: CenturyGothic, &apos;Century Gothic&apos;; font-size: 16px;"><tspan x="0" y="0">Dr. Nick</tspan></text>
  <text transform="translate(1378.22 139.72)" style="fill: #ffd90f; font-family: CenturyGothic, &apos;Century Gothic&apos;; font-size: 16px;"><tspan x="0" y="0">660</tspan></text>
  <text transform="translate(1186.2 164.84)" style="fill: #ffd90f; font-family: CenturyGothic, &apos;Century Gothic&apos;; font-size: 16px;"><tspan x="0" y="0">555</tspan></text>
  <text transform="translate(1134.2 187.84)" style="fill: #ffd90f; font-family: CenturyGothic, &apos;Century Gothic&apos;; font-size: 16px;"><tspan x="0" y="0">525</tspan></text>
  <text transform="translate(1022.2 210.84)" style="fill: #ffd90f; font-family: CenturyGothic, &apos;Century Gothic&apos;; font-size: 16px;"><tspan x="0" y="0">465</tspan></text>
  <text transform="translate(838.2 233.84)" style="fill: #ffd90f; font-family: CenturyGothic, &apos;Century Gothic&apos;; font-size: 16px;"><tspan x="0" y="0">465</tspan></text>
  <text transform="translate(802.2 258.84)" style="fill: #ffd90f; font-family: CenturyGothic, &apos;Century Gothic&apos;; font-size: 16px;"><tspan x="0" y="0">365</tspan></text>
  <text transform="translate(781.2 280.84)" style="fill: #ffd90f; font-family: CenturyGothic, &apos;Century Gothic&apos;; font-size: 16px;"><tspan x="0" y="0">345</tspan></text>
  <text transform="translate(635.2 302.84)" style="fill: #ffd90f; font-family: CenturyGothic, &apos;Century Gothic&apos;; font-size: 16px;"><tspan x="0" y="0">335</tspan></text>
  <text transform="translate(625.2 325.84)" style="fill: #ffd90f; font-family: CenturyGothic, &apos;Century Gothic&apos;; font-size: 16px;"><tspan x="0" y="0">255</tspan></text>
  <text transform="translate(590.2 348.84)" style="fill: #ffd90f; font-family: CenturyGothic, &apos;Century Gothic&apos;; font-size: 16px;"><tspan x="0" y="0">250</tspan></text>
  <text transform="translate(488.2 371.84)" style="fill: #ffd90f; font-family: CenturyGothic, &apos;Century Gothic&apos;; font-size: 16px;"><tspan x="0" y="0">230</tspan></text>
  <text transform="translate(443.2 394.84)" style="fill: #ffd90f; font-family: CenturyGothic, &apos;Century Gothic&apos;; font-size: 16px;"><tspan x="0" y="0">175</tspan></text>
  <text transform="translate(422.2 415.84)" style="fill: #ffd90f; font-family: CenturyGothic, &apos;Century Gothic&apos;; font-size: 16px;"><tspan x="0" y="0">150</tspan></text>
  <text transform="translate(423.2 439.84)" style="fill: #ffd90f; font-family: CenturyGothic, &apos;Century Gothic&apos;; font-size: 16px;"><tspan x="0" y="0">140</tspan></text>
  <text transform="translate(415.2 462.84)" style="fill: #ffd90f; font-family: CenturyGothic, &apos;Century Gothic&apos;; font-size: 16px;"><tspan x="0" y="0">140</tspan></text>
  <text transform="translate(407.2 485.84)" style="fill: #ffd90f; font-family: CenturyGothic, &apos;Century Gothic&apos;; font-size: 16px;"><tspan x="0" y="0">135</tspan></text>
  <text transform="translate(388.2 509.84)" style="fill: #ffd90f; font-family: CenturyGothic, &apos;Century Gothic&apos;; font-size: 16px;"><tspan x="0" y="0">130</tspan></text>
  <text transform="translate(351.2 533.84)" style="fill: #ffd90f; font-family: CenturyGothic, &apos;Century Gothic&apos;; font-size: 16px;"><tspan x="0" y="0">120</tspan></text>
  <text transform="translate(352.2 554.84)" style="fill: #ffd90f; font-family: CenturyGothic, &apos;Century Gothic&apos;; font-size: 16px;"><tspan x="0" y="0">100</tspan></text>
  <text transform="translate(343.2 580.84)" style="fill: #ffd90f; font-family: CenturyGothic, &apos;Century Gothic&apos;; font-size: 16px;"><tspan x="0" y="0">100</tspan></text>
  <text transform="translate(307.2 601.84)" style="fill: #ffd90f; font-family: CenturyGothic, &apos;Century Gothic&apos;; font-size: 16px;"><tspan x="0" y="0">95</tspan></text>
  <text transform="translate(261.2 624.84)" style="fill: #ffd90f; font-family: CenturyGothic, &apos;Century Gothic&apos;; font-size: 16px;"><tspan x="0" y="0">75</tspan></text>
  <text transform="translate(223.2 648.84)" style="fill: #ffd90f; font-family: CenturyGothic, &apos;Century Gothic&apos;; font-size: 16px;"><tspan x="0" y="0">50</tspan></text>
  <text transform="translate(213.2 671.84)" style="fill: #ffd90f; font-family: CenturyGothic, &apos;Century Gothic&apos;; font-size: 16px;"><tspan x="0" y="0">30</tspan></text>
  <text transform="translate(205.2 694.84)" style="fill: #ffd90f; font-family: CenturyGothic, &apos;Century Gothic&apos;; font-size: 16px;"><tspan x="0" y="0">25</tspan></text>
  <text transform="translate(203.2 716.84)" style="fill: #ffd90f; font-family: CenturyGothic, &apos;Century Gothic&apos;; font-size: 16px;"><tspan x="0" y="0">20</tspan></text>
  <text transform="translate(203.2 739.84)" style="fill: #ffd90f; font-family: CenturyGothic, &apos;Century Gothic&apos;; font-size: 16px;"><tspan x="0" y="0">20</tspan></text>
  <text transform="translate(198.2 763.84)" style="fill: #ffd90f; font-family: CenturyGothic, &apos;Century Gothic&apos;; font-size: 16px;"><tspan x="0" y="0">20</tspan></text>
  <text transform="translate(200.2 785.84)" style="fill: #ffd90f; font-family: CenturyGothic, &apos;Century Gothic&apos;; font-size: 16px;"><tspan x="0" y="0">10</tspan></text>
  <text transform="translate(200.2 809.84)" style="fill: #ffd90f; font-family: CenturyGothic, &apos;Century Gothic&apos;; font-size: 16px;"><tspan x="0" y="0">5</tspan></text>
  <text transform="translate(200.2 832.84)" style="fill: #ffd90f; font-family: CenturyGothic, &apos;Century Gothic&apos;; font-size: 16px;"><tspan x="0" y="0">5</tspan></text>
  <text transform="translate(202.2 855.84)" style="fill: #ffd90f; font-family: CenturyGothic, &apos;Century Gothic&apos;; font-size: 16px;"><tspan x="0" y="0">5</tspan></text>
</svg>